<svg width="468" height="122" viewBox="0 0 468 122" fill="none" xmlns="http://www.w3.org/2000/svg">
<path d="M0.0454559 94V0.909088H22.2727V36.1364H22.7273C23.6364 34.0151 24.9242 31.9697 26.5909 30C28.2879 28.0303 30.4394 26.4242 33.0455 25.1818C35.6818 23.9091 38.8333 23.2727 42.5 23.2727C47.3485 23.2727 51.8788 24.5455 56.0909 27.0909C60.3333 29.6364 63.7576 33.5606 66.3636 38.8636C68.9697 44.1667 70.2727 50.9242 70.2727 59.1364C70.2727 67.0455 69.0152 73.6667 66.5 79C64.0152 84.3333 60.6515 88.3333 56.4091 91C52.197 93.6667 47.5152 95 42.3636 95C38.8485 95 35.803 94.4242 33.2273 93.2727C30.6515 92.1212 28.4848 90.6061 26.7273 88.7273C25 86.8485 23.6667 84.8333 22.7273 82.6818H22.0455V94H0.0454559ZM21.8182 59.0909C21.8182 62.8485 22.3182 66.1212 23.3182 68.9091C24.3485 71.697 25.8182 73.8636 27.7273 75.4091C29.6667 76.9242 31.9848 77.6818 34.6818 77.6818C37.4091 77.6818 39.7273 76.9242 41.6364 75.4091C43.5455 73.8636 44.9848 71.697 45.9545 68.9091C46.9545 66.1212 47.4545 62.8485 47.4545 59.0909C47.4545 55.3333 46.9545 52.0758 45.9545 49.3182C44.9848 46.5606 43.5455 44.4242 41.6364 42.9091C39.7576 41.3939 37.4394 40.6364 34.6818 40.6364C31.9545 40.6364 29.6364 41.3788 27.7273 42.8636C25.8182 44.3485 24.3485 46.4697 23.3182 49.2273C22.3182 51.9848 21.8182 55.2727 21.8182 59.0909Z" fill="white"/>
<path d="M101.602 95.1818C97.1477 95.1818 93.1932 94.4394 89.7386 92.9545C86.3144 91.4394 83.6023 89.1667 81.6023 86.1364C79.6326 83.0758 78.6477 79.2424 78.6477 74.6364C78.6477 70.7576 79.3295 67.4848 80.6932 64.8182C82.0568 62.1515 83.9356 59.9848 86.3295 58.3182C88.7235 56.6515 91.4811 55.3939 94.6023 54.5455C97.7235 53.6667 101.057 53.0758 104.602 52.7727C108.572 52.4091 111.769 52.0303 114.193 51.6364C116.617 51.2121 118.375 50.6212 119.466 49.8636C120.587 49.0758 121.148 47.9697 121.148 46.5455V46.3182C121.148 43.9848 120.345 42.1818 118.739 40.9091C117.133 39.6364 114.966 39 112.239 39C109.299 39 106.936 39.6364 105.148 40.9091C103.36 42.1818 102.223 43.9394 101.739 46.1818L81.2386 45.4545C81.8447 41.2121 83.4053 37.4242 85.9205 34.0909C88.4659 30.7273 91.9508 28.0909 96.375 26.1818C100.83 24.2424 106.178 23.2727 112.42 23.2727C116.875 23.2727 120.981 23.803 124.739 24.8636C128.496 25.8939 131.769 27.4091 134.557 29.4091C137.345 31.3788 139.496 33.803 141.011 36.6818C142.557 39.5606 143.33 42.8485 143.33 46.5455V94H122.42V84.2727H121.875C120.633 86.6364 119.042 88.6364 117.102 90.2727C115.193 91.9091 112.936 93.1364 110.33 93.9545C107.754 94.7727 104.845 95.1818 101.602 95.1818ZM108.466 80.6364C110.86 80.6364 113.011 80.1515 114.92 79.1818C116.86 78.2121 118.405 76.8788 119.557 75.1818C120.708 73.4545 121.284 71.4545 121.284 69.1818V62.5455C120.648 62.8788 119.875 63.1818 118.966 63.4545C118.087 63.7273 117.117 63.9848 116.057 64.2273C114.996 64.4697 113.905 64.6818 112.784 64.8636C111.663 65.0455 110.587 65.2121 109.557 65.3636C107.466 65.697 105.678 66.2121 104.193 66.9091C102.739 67.6061 101.617 68.5151 100.83 69.6364C100.072 70.7273 99.6932 72.0303 99.6932 73.5455C99.6932 75.8485 100.511 77.6061 102.148 78.8182C103.814 80.0303 105.92 80.6364 108.466 80.6364Z" fill="white"/>
<path d="M179.148 54.1818V94H156.92V24.1818H178.057V37H178.83C180.375 32.7273 183.011 29.3788 186.739 26.9545C190.466 24.5 194.905 23.2727 200.057 23.2727C204.966 23.2727 209.223 24.3788 212.83 26.5909C216.466 28.7727 219.284 31.8333 221.284 35.7727C223.314 39.6818 224.314 44.2576 224.284 49.5V94H202.057V53.8636C202.087 49.9848 201.102 46.9545 199.102 44.7727C197.133 42.5909 194.39 41.5 190.875 41.5C188.542 41.5 186.481 42.0152 184.693 43.0455C182.936 44.0455 181.572 45.4848 180.602 47.3636C179.663 49.2424 179.178 51.5151 179.148 54.1818Z" fill="white"/>
<path d="M270.591 121.636C263.955 121.636 258.273 120.712 253.545 118.864C248.818 117.015 245.106 114.485 242.409 111.273C239.712 108.061 238.091 104.424 237.545 100.364L258.591 99.1818C258.985 100.606 259.712 101.848 260.773 102.909C261.864 103.97 263.273 104.788 265 105.364C266.758 105.939 268.818 106.227 271.182 106.227C274.909 106.227 277.985 105.318 280.409 103.5C282.864 101.712 284.091 98.5758 284.091 94.0909V81.8182H283.318C282.439 83.9697 281.106 85.8939 279.318 87.5909C277.53 89.2879 275.303 90.6212 272.636 91.5909C270 92.5606 266.97 93.0455 263.545 93.0455C258.455 93.0455 253.788 91.8636 249.545 89.5C245.333 87.1061 241.955 83.4091 239.409 78.4091C236.894 73.3788 235.636 66.9091 235.636 59C235.636 50.8485 236.939 44.1364 239.545 38.8636C242.152 33.5606 245.561 29.6364 249.773 27.0909C254.015 24.5455 258.576 23.2727 263.455 23.2727C267.121 23.2727 270.258 23.9091 272.864 25.1818C275.5 26.4242 277.667 28.0303 279.364 30C281.061 31.9697 282.348 34.0151 283.227 36.1364H283.864V24.1818H306V94.2727C306 100.182 304.515 105.167 301.545 109.227C298.576 113.288 294.424 116.364 289.091 118.455C283.758 120.576 277.591 121.636 270.591 121.636ZM271.273 76.8636C273.97 76.8636 276.273 76.1515 278.182 74.7273C280.091 73.303 281.561 71.2576 282.591 68.5909C283.621 65.9242 284.136 62.7273 284.136 59C284.136 55.2121 283.621 51.9545 282.591 49.2273C281.591 46.4697 280.121 44.3485 278.182 42.8636C276.273 41.3788 273.97 40.6364 271.273 40.6364C268.515 40.6364 266.182 41.3939 264.273 42.9091C262.364 44.4242 260.909 46.5606 259.909 49.3182C258.939 52.0455 258.455 55.2727 258.455 59C258.455 62.7273 258.955 65.9242 259.955 68.5909C260.955 71.2576 262.394 73.303 264.273 74.7273C266.182 76.1515 268.515 76.8636 271.273 76.8636Z" fill="white"/>
<path d="M397.295 94V24.1818H418.886V36.9091H419.614C420.886 32.303 422.962 28.8788 425.841 26.6364C428.72 24.3636 432.068 23.2273 435.886 23.2273C436.917 23.2273 437.977 23.303 439.068 23.4545C440.159 23.5758 441.174 23.7727 442.114 24.0455V43.3636C441.053 43 439.659 42.7121 437.932 42.5C436.235 42.2879 434.72 42.1818 433.386 42.1818C430.75 42.1818 428.371 42.7727 426.25 43.9545C424.159 45.1061 422.508 46.7273 421.295 48.8182C420.114 50.8788 419.523 53.303 419.523 56.0909V94H397.295Z" fill="white"/>
<path d="M455.67 95.3182C452.398 95.3182 449.595 94.1667 447.261 91.8636C444.958 89.5606 443.822 86.7727 443.852 83.5C443.822 80.2879 444.958 77.5455 447.261 75.2727C449.595 72.9697 452.398 71.8182 455.67 71.8182C458.761 71.8182 461.489 72.9697 463.852 75.2727C466.246 77.5455 467.458 80.2879 467.489 83.5C467.458 85.6818 466.883 87.6667 465.761 89.4545C464.67 91.2424 463.231 92.6667 461.443 93.7273C459.686 94.7879 457.761 95.3182 455.67 95.3182Z" fill="white"/>
<path fill-rule="evenodd" clip-rule="evenodd" d="M352.807 95.3182C345.504 95.3182 339.201 93.8788 333.898 91C328.625 88.0909 324.564 83.9545 321.716 78.5909C318.898 73.197 317.489 66.7879 317.489 59.3636C317.489 52.1515 318.913 45.8485 321.761 40.4545C324.61 35.0303 328.625 30.8182 333.807 27.8182C338.989 24.7879 345.095 23.2727 352.125 23.2727C357.095 23.2727 361.64 24.0455 365.761 25.5909C369.883 27.1364 373.443 29.4242 376.443 32.4545C379.443 35.4848 381.777 39.2273 383.443 43.6818C385.11 48.1061 385.943 53.1818 385.943 58.9091V64.4545H339.398V65.0455C339.398 67.8939 339.958 70.3939 341.08 72.5455C342.201 74.6667 343.792 76.3182 345.852 77.5C347.913 78.6818 350.367 79.2727 353.216 79.2727C355.186 79.2727 356.973 79 358.58 78.4545C360.186 77.9091 361.564 77.1061 362.716 76.0455C363.867 74.9848 364.731 73.6818 365.307 72.1364L385.716 72.7273C384.867 77.303 383.004 81.2879 380.125 84.6818C377.277 88.0455 373.534 90.6667 368.898 92.5455C364.261 94.3939 358.898 95.3182 352.807 95.3182ZM363.58 45.2273C364.67 47.0758 365.231 49.1818 365.261 51.5455H339.411C339.521 49.2983 340.123 47.2831 341.216 45.5C342.367 43.5909 343.928 42.0909 345.898 41C347.867 39.8788 350.095 39.3182 352.58 39.3182C355.034 39.3182 357.201 39.8485 359.08 40.9091C360.989 41.9394 362.489 43.3788 363.58 45.2273Z" fill="white"/>
</svg>
